<svg width="48" height="51" viewBox="0 0 48 51" fill="none" xmlns="http://www.w3.org/2000/svg">
<path d="M44.5916 9.23368L44.5908 9.23338L25.4248 1.28935C25.4245 1.28924 25.4242 1.28913 25.424 1.28902C24.9614 1.09826 24.4654 1 23.9644 1C23.4633 1 22.9673 1.09826 22.5048 1.28902C22.5045 1.28913 22.5042 1.28924 22.504 1.28935L3.33789 9.23338L3.33533 9.23444C1.92145 9.81588 1 11.1897 1 12.7089C1 32.0335 12.2018 45.2831 22.4943 49.5514L44.5916 9.23368ZM44.5916 9.23368C45.9962 9.81458 46.9188 11.1888 46.9188 12.7089C46.9188 34.2328 33.6423 46.1418 25.4137 49.5518M44.5916 9.23368L25.4137 49.5518M25.4137 49.5518C24.4808 49.9369 23.4285 49.9369 22.4955 49.5519L25.4137 49.5518ZM22.9694 44.3189L22.9698 45.9288L24.4128 45.2149C34.1236 40.4107 42.1823 29.1648 42.5194 13.7835L42.5343 13.0997L41.9025 12.8378L24.3423 5.55855L22.959 4.98511L22.9594 6.48259L22.9694 44.3189Z" stroke="#028EFA" stroke-width="2"/>
</svg>
