<svg width="51" height="39" viewBox="0 0 51 39" fill="none" xmlns="http://www.w3.org/2000/svg">
<path d="M29.9905 37.0559L29.9898 37.0565C28.6 38.23 26.4216 37.2583 26.4216 35.3501V3.21422C26.4216 1.31259 28.5962 0.338816 29.9914 1.50915C29.9916 1.50933 29.9918 1.5095 29.992 1.50968L49.0552 17.5751C49.0554 17.5753 49.0555 17.5754 49.0556 17.5755C50.1023 18.4614 50.1023 20.1029 49.0556 20.9889C49.0555 20.989 49.0554 20.9891 49.0552 20.9892L29.9905 37.0559ZM4.56898 37.0559L4.56825 37.0565C3.17844 38.23 1 37.2583 1 35.3501V3.21422C1 1.31259 3.17467 0.338816 4.56981 1.50915C4.57002 1.50933 4.57024 1.5095 4.57045 1.50968L23.6337 17.5751C23.6338 17.5752 23.6339 17.5753 23.634 17.5754C24.6808 18.4614 24.6808 20.103 23.634 20.9889C23.6339 20.989 23.6338 20.9891 23.6337 20.9892L4.56898 37.0559Z" stroke="#028EFA" stroke-width="2"/>
</svg>
