<svg width="1366" height="201" viewBox="0 0 1366 201" fill="none" xmlns="http://www.w3.org/2000/svg">
<g clip-path="url(#clip0)">
<rect width="1366" height="201" fill="#502ACD"/>
<g clip-path="url(#clip1)">
<path d="M1318.66 169.239L1285.79 132.124H1298.39C1302.1 132.124 1305.38 130.073 1306.94 126.767C1308.5 123.469 1307.99 119.688 1305.59 116.903L1273.44 79.6237H1285.33C1289.08 79.6237 1292.45 77.4293 1293.91 74.0415C1295.36 70.7069 1294.68 66.8268 1292.17 64.1649L1246.8 15.9797C1244.32 13.3342 1239.69 13.3342 1237.2 15.9797L1191.83 64.1649C1189.32 66.8268 1188.64 70.7069 1190.08 74.0415C1191.55 77.4293 1194.93 79.6237 1198.67 79.6237H1210.56L1178.41 116.911C1176.02 119.692 1175.5 123.469 1177.06 126.771C1178.62 130.073 1181.9 132.124 1185.61 132.124H1198.21L1165.34 169.239C1162.87 172.024 1162.31 175.838 1163.88 179.189C1165.42 182.491 1168.81 184.624 1172.52 184.624H1228.83V194.652L1216.37 214.504C1214.18 218.868 1217.37 224.003 1222.26 224.003H1261.74C1266.63 224.003 1269.82 218.868 1267.63 214.504L1255.17 194.652V184.624H1311.48C1315.19 184.624 1318.58 182.491 1320.12 179.189C1321.69 175.838 1321.13 172.024 1318.66 169.239Z" fill="#3E17BC"/>
</g>
<g clip-path="url(#clip2)">
<path d="M1167.56 116.569L1161.31 109.5H1163.71C1164.41 109.5 1165.03 109.109 1165.33 108.479C1165.63 107.851 1165.53 107.131 1165.07 106.6L1158.97 99.4996H1161.23C1161.94 99.4996 1162.58 99.0816 1162.86 98.4363C1163.13 97.8012 1163 97.0621 1162.53 96.5551L1153.91 87.377C1153.44 86.873 1152.56 86.873 1152.09 87.377L1143.47 96.5551C1143 97.0621 1142.87 97.8012 1143.14 98.4363C1143.42 99.0816 1144.06 99.4996 1144.77 99.4996H1147.03L1140.93 106.602C1140.47 107.132 1140.37 107.851 1140.67 108.48C1140.97 109.109 1141.59 109.5 1142.29 109.5H1144.69L1138.44 116.569C1137.98 117.1 1137.87 117.826 1138.17 118.464C1138.46 119.093 1139.1 119.5 1139.81 119.5H1150.5V121.41L1148.13 125.191C1147.72 126.022 1148.32 127 1149.25 127H1156.75C1157.68 127 1158.28 126.022 1157.87 125.191L1155.5 121.41V119.5H1166.19C1166.9 119.5 1167.54 119.093 1167.83 118.464C1168.13 117.826 1168.02 117.1 1167.56 116.569Z" fill="#3E17BC"/>
</g>
<g clip-path="url(#clip3)">
<path d="M1158.11 193.138L1145.63 178.999H1150.41C1151.82 178.999 1153.07 178.218 1153.66 176.958C1154.26 175.702 1154.06 174.261 1153.15 173.201L1140.94 158.999H1145.46C1146.88 158.999 1148.16 158.163 1148.71 156.872C1149.26 155.602 1149.01 154.124 1148.05 153.11L1130.82 134.754C1129.88 133.746 1128.12 133.746 1127.18 134.754L1109.95 153.11C1108.99 154.124 1108.74 155.602 1109.28 156.872C1109.84 158.163 1111.12 158.999 1112.55 158.999H1117.06L1104.85 173.204C1103.94 174.263 1103.75 175.702 1104.34 176.96C1104.93 178.218 1106.18 178.999 1107.59 178.999H1112.37L1099.89 193.138C1098.95 194.199 1098.74 195.652 1099.33 196.929C1099.92 198.186 1101.21 198.999 1102.62 198.999H1124V202.819L1119.27 210.382C1118.44 212.044 1119.65 214.001 1121.5 214.001H1136.5C1138.36 214.001 1139.56 212.044 1138.73 210.382L1134 202.819V198.999H1155.38C1156.79 198.999 1158.08 198.186 1158.67 196.929C1159.26 195.652 1159.05 194.199 1158.11 193.138Z" fill="#3E17BC"/>
</g>
<g clip-path="url(#clip4)">
<path d="M152.155 189.244L112.21 143.999H127.525C132.03 143.999 136.015 141.499 137.915 137.469C139.815 133.449 139.19 128.839 136.275 125.444L97.2105 79.9994H111.655C116.205 79.9994 120.305 77.3244 122.085 73.1944C123.845 69.1294 123.015 64.3994 119.965 61.1544L64.8305 2.41436C61.8155 -0.810645 56.1905 -0.810645 53.1705 2.41436L-1.96954 61.1544C-5.01954 64.3994 -5.84454 69.1294 -4.08954 73.1944C-2.30954 77.3244 1.79546 79.9994 6.34546 79.9994H20.7905L-18.2795 125.454C-21.1845 128.844 -21.8095 133.449 -19.9145 137.474C-18.0145 141.499 -14.0345 143.999 -9.52454 143.999H5.79046L-34.1545 189.244C-37.1545 192.639 -37.8345 197.289 -35.9345 201.374C-34.0595 205.399 -29.9345 207.999 -25.4295 207.999H43.0005V220.224L27.8555 244.424C25.1955 249.744 29.0655 256.004 35.0105 256.004H82.9905C88.9355 256.004 92.8055 249.744 90.1455 244.424L75.0005 220.224V207.999H143.43C147.935 207.999 152.06 205.399 153.935 201.374C155.835 197.289 155.155 192.639 152.155 189.244Z" fill="#3E17BC"/>
</g>
<g clip-path="url(#clip5)">
<path d="M224.341 187.885L201.04 161.374H209.974C212.601 161.374 214.926 159.909 216.034 157.548C217.143 155.192 216.778 152.491 215.078 150.502L192.29 123.874H200.716C203.37 123.874 205.762 122.307 206.8 119.887C207.827 117.505 207.343 114.733 205.564 112.832L173.401 78.4141C171.643 76.5244 168.361 76.5244 166.6 78.4141L134.435 112.832C132.656 114.733 132.174 117.505 133.198 119.887C134.236 122.307 136.631 123.874 139.285 123.874H147.711L124.921 150.508C123.226 152.494 122.861 155.192 123.967 157.551C125.075 159.909 127.397 161.374 130.028 161.374H138.961L115.66 187.885C113.91 189.874 113.514 192.599 114.622 194.992C115.716 197.351 118.122 198.874 120.75 198.874H160.667V206.037L151.833 220.217C150.281 223.334 152.539 227.002 156.006 227.002H183.995C187.463 227.002 189.72 223.334 188.169 220.217L179.334 206.037V198.874H219.251C221.879 198.874 224.286 197.351 225.379 194.992C226.488 192.599 226.091 189.874 224.341 187.885Z" fill="#3E17BC"/>
</g>
</g>
<defs>
<clipPath id="clip0">
<rect width="1366" height="201" fill="white"/>
</clipPath>
<clipPath id="clip1">
<rect width="158" height="210" fill="white" transform="translate(1163 14)"/>
</clipPath>
<clipPath id="clip2">
<rect width="30" height="40" fill="white" transform="translate(1138 87)"/>
</clipPath>
<clipPath id="clip3">
<rect width="60" height="80" fill="white" transform="translate(1099 134)"/>
</clipPath>
<clipPath id="clip4">
<rect width="192" height="256" fill="white" transform="translate(-37)"/>
</clipPath>
<clipPath id="clip5">
<rect width="112" height="150" fill="white" transform="translate(114 77)"/>
</clipPath>
</defs>
</svg>
