<svg width="1366" height="201" viewBox="0 0 1366 201" fill="none" xmlns="http://www.w3.org/2000/svg">
<g clip-path="url(#clip0)">
<rect width="1366" height="201" fill="#502ACD"/>
<g clip-path="url(#clip1)">
<path d="M1318.66 169.239L1285.79 132.124H1298.39C1302.1 132.124 1305.38 130.073 1306.94 126.767C1308.5 123.469 1307.99 119.688 1305.59 116.903L1273.44 79.6237H1285.33C1289.08 79.6237 1292.45 77.4293 1293.91 74.0415C1295.36 70.7069 1294.68 66.8268 1292.17 64.1649L1246.8 15.9797C1244.32 13.3342 1239.69 13.3342 1237.2 15.9797L1191.83 64.1649C1189.32 66.8268 1188.64 70.7069 1190.08 74.0415C1191.55 77.4293 1194.93 79.6237 1198.67 79.6237H1210.56L1178.41 116.911C1176.02 119.692 1175.5 123.469 1177.06 126.771C1178.62 130.073 1181.9 132.124 1185.61 132.124H1198.21L1165.34 169.239C1162.87 172.024 1162.31 175.838 1163.88 179.189C1165.42 182.491 1168.81 184.624 1172.52 184.624H1228.83V194.652L1216.37 214.504C1214.18 218.868 1217.37 224.003 1222.26 224.003H1261.74C1266.63 224.003 1269.82 218.868 1267.63 214.504L1255.17 194.652V184.624H1311.48C1315.19 184.624 1318.58 182.491 1320.12 179.189C1321.69 175.838 1321.13 172.024 1318.66 169.239Z" fill="#3E17BC"/>
</g>
<g clip-path="url(#clip2)">
<path d="M1167.56 116.569L1161.31 109.5H1163.71C1164.41 109.5 1165.03 109.109 1165.33 108.479C1165.63 107.851 1165.53 107.131 1165.07 106.6L1158.97 99.4996H1161.23C1161.94 99.4996 1162.58 99.0816 1162.86 98.4363C1163.13 97.8012 1163 97.0621 1162.53 96.5551L1153.91 87.377C1153.44 86.873 1152.56 86.873 1152.09 87.377L1143.47 96.5551C1143 97.0621 1142.87 97.8012 1143.14 98.4363C1143.42 99.0816 1144.06 99.4996 1144.77 99.4996H1147.03L1140.93 106.602C1140.47 107.132 1140.37 107.851 1140.67 108.48C1140.97 109.109 1141.59 109.5 1142.29 109.5H1144.69L1138.44 116.569C1137.98 117.1 1137.87 117.826 1138.17 118.464C1138.46 119.093 1139.1 119.5 1139.81 119.5H1150.5V121.41L1148.13 125.191C1147.72 126.022 1148.32 127 1149.25 127H1156.75C1157.68 127 1158.28 126.022 1157.87 125.191L1155.5 121.41V119.5H1166.19C1166.9 119.5 1167.54 119.093 1167.83 118.464C1168.13 117.826 1168.02 117.1 1167.56 116.569Z" fill="#3E17BC"/>
</g>
<g clip-path="url(#clip3)">
<path d="M1158.11 193.138L1145.63 178.999H1150.41C1151.82 178.999 1153.07 178.218 1153.66 176.958C1154.26 175.702 1154.06 174.261 1153.15 173.201L1140.94 158.999H1145.46C1146.88 158.999 1148.16 158.163 1148.71 156.872C1149.26 155.602 1149.01 154.124 1148.05 153.11L1130.82 134.754C1129.88 133.746 1128.12 133.746 1127.18 134.754L1109.95 153.11C1108.99 154.124 1108.74 155.602 1109.28 156.872C1109.84 158.163 1111.12 158.999 1112.55 158.999H1117.06L1104.85 173.204C1103.94 174.263 1103.75 175.702 1104.34 176.96C1104.93 178.218 1106.18 178.999 1107.59 178.999H1112.37L1099.89 193.138C1098.95 194.199 1098.74 195.652 1099.33 196.929C1099.92 198.186 1101.21 198.999 1102.62 198.999H1124V202.819L1119.27 210.382C1118.44 212.044 1119.65 214.001 1121.5 214.001H1136.5C1138.36 214.001 1139.56 212.044 1138.73 210.382L1134 202.819V198.999H1155.38C1156.79 198.999 1158.08 198.186 1158.67 196.929C1159.26 195.652 1159.05 194.199 1158.11 193.138Z" fill="#3E17BC"/>
</g>
<g clip-path="url(#clip4)">
<path d="M189.155 220.244L149.21 174.999H164.525C169.03 174.999 173.015 172.499 174.915 168.469C176.815 164.449 176.19 159.839 173.275 156.444L134.21 110.999H148.655C153.205 110.999 157.305 108.324 159.085 104.194C160.845 100.129 160.015 95.3994 156.965 92.1544L101.83 33.4144C98.8155 30.1894 93.1905 30.1894 90.1705 33.4144L35.0305 92.1544C31.9805 95.3994 31.1555 100.129 32.9105 104.194C34.6905 108.324 38.7955 110.999 43.3455 110.999H57.7905L18.7205 156.454C15.8155 159.844 15.1905 164.449 17.0855 168.474C18.9855 172.499 22.9655 174.999 27.4755 174.999H42.7905L2.84546 220.244C-0.15454 223.639 -0.83454 228.289 1.06546 232.374C2.94046 236.399 7.06546 238.999 11.5705 238.999H80.0005V251.224L64.8555 275.424C62.1955 280.744 66.0655 287.004 72.0105 287.004H119.99C125.935 287.004 129.805 280.744 127.145 275.424L112 251.224V238.999H180.43C184.935 238.999 189.06 236.399 190.935 232.374C192.835 228.289 192.155 223.639 189.155 220.244Z" fill="#3E17BC"/>
</g>
<g clip-path="url(#clip5)">
<path d="M261.341 218.885L238.04 192.374H246.974C249.601 192.374 251.926 190.909 253.034 188.548C254.143 186.192 253.778 183.491 252.078 181.502L229.29 154.874H237.716C240.37 154.874 242.762 153.307 243.8 150.887C244.827 148.505 244.343 145.733 242.564 143.832L210.401 109.414C208.643 107.524 205.361 107.524 203.6 109.414L171.435 143.832C169.656 145.733 169.174 148.505 170.198 150.887C171.236 153.307 173.631 154.874 176.285 154.874H184.711L161.921 181.508C160.226 183.494 159.861 186.192 160.967 188.551C162.075 190.909 164.397 192.374 167.028 192.374H175.961L152.66 218.885C150.91 220.874 150.514 223.599 151.622 225.992C152.716 228.351 155.122 229.874 157.75 229.874H197.667V237.037L188.833 251.217C187.281 254.334 189.539 258.002 193.006 258.002H220.995C224.463 258.002 226.72 254.334 225.169 251.217L216.334 237.037V229.874H256.251C258.879 229.874 261.286 228.351 262.379 225.992C263.488 223.599 263.091 220.874 261.341 218.885Z" fill="#3E17BC"/>
</g>
</g>
<defs>
<clipPath id="clip0">
<rect width="1366" height="201" fill="white"/>
</clipPath>
<clipPath id="clip1">
<rect width="158" height="210" fill="white" transform="translate(1163 14)"/>
</clipPath>
<clipPath id="clip2">
<rect width="30" height="40" fill="white" transform="translate(1138 87)"/>
</clipPath>
<clipPath id="clip3">
<rect width="60" height="80" fill="white" transform="translate(1099 134)"/>
</clipPath>
<clipPath id="clip4">
<rect width="192" height="256" fill="white" transform="translate(0 31)"/>
</clipPath>
<clipPath id="clip5">
<rect width="112" height="150" fill="white" transform="translate(151 108)"/>
</clipPath>
</defs>
</svg>
