<svg width="36" height="51" viewBox="0 0 36 51" fill="none" xmlns="http://www.w3.org/2000/svg">
<path d="M10.7242 42.3072H24.9229L24.9199 45.1141C24.9199 45.1141 24.9199 45.1141 24.9199 45.1142C24.9194 45.5381 24.7915 45.954 24.5498 46.3101L24.5496 46.3103L22.8189 48.8612L22.8187 48.8615C22.6163 49.1601 22.3403 49.407 22.0138 49.5786C21.6873 49.7502 21.3213 49.8406 20.9486 49.8406H14.6993C14.3266 49.8406 13.9606 49.7502 13.634 49.5786C13.3076 49.407 13.0316 49.1601 12.8292 48.8615L12.829 48.8612L11.0983 46.3103L11.098 46.3099C10.8566 45.9545 10.7286 45.5379 10.728 45.1136L10.7242 42.3072ZM5.15689 28.3063L5.15685 28.3062C2.56704 25.4091 1 21.6239 1 17.4762C1 8.77482 8.00619 1.02918 17.7707 1.00008L17.7708 1.00008C27.1055 0.971906 34.6469 8.37755 34.6469 17.4762C34.6469 21.6239 33.0798 25.4091 30.49 28.3062L30.49 28.3063C28.8586 30.1314 26.366 33.8059 25.1983 37.1307H10.4486C9.28092 33.8059 6.78825 30.1314 5.15689 28.3063ZM10.7219 17.4762C10.7219 13.667 13.8901 10.5325 17.8234 10.5325C19.2523 10.5325 20.4437 9.39229 20.4437 7.94376C20.4437 6.49524 19.2523 5.35503 17.8234 5.35503C11.0354 5.35503 5.48125 10.7729 5.48125 17.4762C5.48125 18.9247 6.6727 20.0649 8.10156 20.0649C9.53043 20.0649 10.7219 18.9247 10.7219 17.4762Z" stroke="#028EFA" stroke-width="2"/>
</svg>
