<svg width="51" height="51" viewBox="0 0 51 51" fill="none" xmlns="http://www.w3.org/2000/svg">
<path d="M1.49613 20.3951L1.49615 20.3951C3.36352 10.9535 11.005 3.33018 20.4774 1.48146C36.1167 -1.56427 49.7912 10.266 49.8406 25.2954C49.8306 28.3004 47.3862 30.7794 44.396 30.7794H36.4818C30.684 30.7794 26.9049 36.8189 29.5431 42.0039L29.5433 42.0044C31.1651 45.1879 29.3661 49.1544 26.0609 49.668C20.1483 50.5845 13.1148 47.7961 7.97592 42.4337C2.86568 37.1012 -0.269784 29.3201 1.49613 20.3951ZM0.515231 20.201L0.51526 20.2011L0.515231 20.201ZM5.35402 28.6018C5.35402 30.9117 7.22174 32.7794 9.53163 32.7794C11.8415 32.7794 13.7092 30.9117 13.7092 28.6018C13.7092 26.2919 11.8415 24.4242 9.53163 24.4242C7.22174 24.4242 5.35402 26.2919 5.35402 28.6018ZM8.53163 15.8914C8.53163 18.2013 10.3994 20.069 12.7092 20.069C15.0191 20.069 16.8869 18.2013 16.8869 15.8914C16.8869 13.5815 15.0191 11.7138 12.7092 11.7138C10.3994 11.7138 8.53163 13.5815 8.53163 15.8914ZM21.2421 9.53625C21.2421 11.8461 23.1098 13.7138 25.4197 13.7138C27.7296 13.7138 29.5973 11.8461 29.5973 9.53625C29.5973 7.22635 27.7296 5.35866 25.4197 5.35866C23.1098 5.35866 21.2421 7.22635 21.2421 9.53625ZM33.9526 15.8914C33.9526 18.2013 35.8203 20.069 38.1302 20.069C40.4401 20.069 42.3078 18.2013 42.3078 15.8914C42.3078 13.5815 40.4401 11.7138 38.1302 11.7138C35.8203 11.7138 33.9526 13.5815 33.9526 15.8914Z" stroke="#028EFA" stroke-width="2"/>
</svg>
